<svg xmlns="http://www.w3.org/2000/svg" xmlns:xlink="http://www.w3.org/1999/xlink" width="200" zoomAndPan="magnify" viewBox="0 0 150 149.999998" height="200" preserveAspectRatio="xMidYMid meet" version="1.0"><defs><clipPath id="a879873f21"><path d="M 22.5 0 L 127.5 0 C 139.925781 0 150 10.074219 150 22.5 L 150 127.5 C 150 139.925781 139.925781 150 127.5 150 L 22.5 150 C 10.074219 150 0 139.925781 0 127.5 L 0 22.5 C 0 10.074219 10.074219 0 22.5 0 Z M 22.5 0 " clip-rule="nonzero"/></clipPath><clipPath id="371cdbda7c"><path d="M 0 0 L 150 0 L 150 150 L 0 150 Z M 0 0 " clip-rule="nonzero"/></clipPath><clipPath id="fb7e6fae06"><path d="M 22.5 0 L 127.5 0 C 139.925781 0 150 10.074219 150 22.5 L 150 127.5 C 150 139.925781 139.925781 150 127.5 150 L 22.5 150 C 10.074219 150 0 139.925781 0 127.5 L 0 22.5 C 0 10.074219 10.074219 0 22.5 0 Z M 22.5 0 " clip-rule="nonzero"/></clipPath><clipPath id="04ca93e0c7"><rect x="0" width="150" y="0" height="150"/></clipPath><clipPath id="32ac51f63e"><path d="M 46.039062 46.039062 L 103.960938 46.039062 L 103.960938 103.960938 L 46.039062 103.960938 Z M 46.039062 46.039062 " clip-rule="nonzero"/></clipPath><clipPath id="867db73854"><path d="M 75 46.039062 C 59.003906 46.039062 46.039062 59.003906 46.039062 75 C 46.039062 90.996094 59.003906 103.960938 75 103.960938 C 90.996094 103.960938 103.960938 90.996094 103.960938 75 C 103.960938 59.003906 90.996094 46.039062 75 46.039062 Z M 75 46.039062 " clip-rule="nonzero"/></clipPath><clipPath id="ba292de531"><path d="M 0.0390625 0.0390625 L 57.960938 0.0390625 L 57.960938 57.960938 L 0.0390625 57.960938 Z M 0.0390625 0.0390625 " clip-rule="nonzero"/></clipPath><clipPath id="872febe34e"><path d="M 29 0.0390625 C 13.003906 0.0390625 0.0390625 13.003906 0.0390625 29 C 0.0390625 44.996094 13.003906 57.960938 29 57.960938 C 44.996094 57.960938 57.960938 44.996094 57.960938 29 C 57.960938 13.003906 44.996094 0.0390625 29 0.0390625 Z M 29 0.0390625 " clip-rule="nonzero"/></clipPath><clipPath id="4bdc69e20d"><rect x="0" width="58" y="0" height="58"/></clipPath><clipPath id="340f22d302"><path d="M 57.414062 57.414062 L 92.585938 57.414062 L 92.585938 92.585938 L 57.414062 92.585938 Z M 57.414062 57.414062 " clip-rule="nonzero"/></clipPath><clipPath id="ca3e986d4c"><path d="M 75 57.414062 C 65.285156 57.414062 57.414062 65.285156 57.414062 75 C 57.414062 84.714844 65.285156 92.585938 75 92.585938 C 84.714844 92.585938 92.585938 84.714844 92.585938 75 C 92.585938 65.285156 84.714844 57.414062 75 57.414062 Z M 75 57.414062 " clip-rule="nonzero"/></clipPath><clipPath id="89c92c4730"><path d="M 0.414062 0.414062 L 35.585938 0.414062 L 35.585938 35.585938 L 0.414062 35.585938 Z M 0.414062 0.414062 " clip-rule="nonzero"/></clipPath><clipPath id="d20b38b819"><path d="M 18 0.414062 C 8.285156 0.414062 0.414062 8.285156 0.414062 18 C 0.414062 27.714844 8.285156 35.585938 18 35.585938 C 27.714844 35.585938 35.585938 27.714844 35.585938 18 C 35.585938 8.285156 27.714844 0.414062 18 0.414062 Z M 18 0.414062 " clip-rule="nonzero"/></clipPath><clipPath id="55a0d00aed"><rect x="0" width="36" y="0" height="36"/></clipPath></defs><g clip-path="url(#a879873f21)"><g transform="matrix(1, 0, 0, 1, 0, -0.000000000000007527)"><g clip-path="url(#04ca93e0c7)"><g clip-path="url(#371cdbda7c)"><g clip-path="url(#fb7e6fae06)"><rect x="-33" width="216" fill="#000000" height="215.999996" y="-32.999999" fill-opacity="1"/></g></g></g></g></g><path fill="#f9fafb" d="M 74.996094 186.058594 C 73.21875 186.058594 71.738281 184.699219 71.59375 182.929688 C 64 90.875 59.113281 85.988281 -32.9375 78.394531 C -34.707031 78.25 -36.070312 76.773438 -36.070312 74.996094 C -36.070312 73.21875 -34.707031 71.738281 -32.9375 71.59375 C 59.113281 64 64 59.113281 71.59375 -32.9375 C 71.738281 -34.707031 73.21875 -36.070312 74.996094 -36.070312 C 76.773438 -36.070312 78.25 -34.707031 78.394531 -32.9375 C 85.988281 59.113281 90.875 64 182.929688 71.59375 C 184.699219 71.738281 186.058594 73.21875 186.058594 74.996094 C 186.058594 76.773438 184.699219 78.25 182.929688 78.394531 C 90.875 85.988281 85.988281 90.875 78.394531 182.929688 C 78.25 184.699219 76.773438 186.058594 74.996094 186.058594 Z M 74.996094 186.058594 " fill-opacity="1" fill-rule="nonzero"/><g clip-path="url(#32ac51f63e)"><g clip-path="url(#867db73854)"><g transform="matrix(1, 0, 0, 1, 46, 46)"><g clip-path="url(#4bdc69e20d)"><g clip-path="url(#ba292de531)"><g clip-path="url(#872febe34e)"><path fill="#000000" d="M 0.0390625 0.0390625 L 57.960938 0.0390625 L 57.960938 57.960938 L 0.0390625 57.960938 Z M 0.0390625 0.0390625 " fill-opacity="1" fill-rule="nonzero"/></g></g></g></g></g></g><g clip-path="url(#340f22d302)"><g clip-path="url(#ca3e986d4c)"><g transform="matrix(1, 0, 0, 1, 57, 57)"><g clip-path="url(#55a0d00aed)"><g clip-path="url(#89c92c4730)"><g clip-path="url(#d20b38b819)"><path fill="#f9fafb" d="M 0.414062 0.414062 L 35.585938 0.414062 L 35.585938 35.585938 L 0.414062 35.585938 Z M 0.414062 0.414062 " fill-opacity="1" fill-rule="nonzero"/></g></g></g></g></g></g></svg>